<?xml version="1.0" encoding="utf-8" standalone="no"?>
<!DOCTYPE svg PUBLIC "-//W3C//DTD SVG 1.1//EN"
  "http://www.w3.org/Graphics/SVG/1.1/DTD/svg11.dtd">
<svg height="277.314375pt" version="1.1" viewBox="0 0 392.14375 277.314375" width="392.14375pt" xmlns="http://www.w3.org/2000/svg" xmlns:xlink="http://www.w3.org/1999/xlink">
 <metadata>
  <rdf:RDF xmlns:cc="http://creativecommons.org/ns#" xmlns:dc="http://purl.org/dc/elements/1.1/" xmlns:rdf="http://www.w3.org/1999/02/22-rdf-syntax-ns#">
   <cc:Work>
    <dc:type rdf:resource="http://purl.org/dc/dcmitype/StillImage"/>
    <dc:date>2022-12-11T16:52:35.568964</dc:date>
    <dc:format>image/svg+xml</dc:format>
    <dc:creator>
     <cc:Agent>
      <dc:title>Matplotlib v3.4.3, https://matplotlib.org/</dc:title>
     </cc:Agent>
    </dc:creator>
   </cc:Work>
  </rdf:RDF>
 </metadata>
 <defs>
  <style type="text/css">*{stroke-linecap:butt;stroke-linejoin:round;}</style>
 </defs>
 <g id="figure_1">
  <g id="patch_1">
   <path d="M 0 277.314375 
L 392.14375 277.314375 
L 392.14375 0 
L 0 0 
z
" style="fill:none;"/>
  </g>
  <g id="axes_1">
   <g id="patch_2">
    <path d="M 50.14375 239.758125 
L 384.94375 239.758125 
L 384.94375 22.318125 
L 50.14375 22.318125 
z
" style="fill:#ffffff;"/>
   </g>
   <g id="PathCollection_1">
    <defs>
     <path d="M 0 3 
C 0.795609 3 1.55874 2.683901 2.12132 2.12132 
C 2.683901 1.55874 3 0.795609 3 0 
C 3 -0.795609 2.683901 -1.55874 2.12132 -2.12132 
C 1.55874 -2.683901 0.795609 -3 0 -3 
C -0.795609 -3 -1.55874 -2.683901 -2.12132 -2.12132 
C -2.683901 -1.55874 -3 -0.795609 -3 0 
C -3 0.795609 -2.683901 1.55874 -2.12132 2.12132 
C -1.55874 2.683901 -0.795609 3 0 3 
z
" id="m1da2eea323" style="stroke:#0000ff;"/>
    </defs>
    <g clip-path="url(#pc5a331a90f)">
     <use style="fill:#0000ff;stroke:#0000ff;" x="83.62375" xlink:href="#m1da2eea323" y="138.974685"/>
    </g>
   </g>
   <g id="PathCollection_2">
    <g clip-path="url(#pc5a331a90f)">
     <use style="fill:#0000ff;stroke:#0000ff;" x="83.62375" xlink:href="#m1da2eea323" y="132.668925"/>
    </g>
   </g>
   <g id="PathCollection_3">
    <g clip-path="url(#pc5a331a90f)">
     <use style="fill:#0000ff;stroke:#0000ff;" x="83.62375" xlink:href="#m1da2eea323" y="132.668925"/>
    </g>
   </g>
   <g id="PathCollection_4">
    <g clip-path="url(#pc5a331a90f)">
     <use style="fill:#0000ff;stroke:#0000ff;" x="83.62375" xlink:href="#m1da2eea323" y="125.602125"/>
    </g>
   </g>
   <g id="PathCollection_5">
    <g clip-path="url(#pc5a331a90f)">
     <use style="fill:#0000ff;stroke:#0000ff;" x="83.62375" xlink:href="#m1da2eea323" y="138.974685"/>
    </g>
   </g>
   <g id="PathCollection_6">
    <g clip-path="url(#pc5a331a90f)">
     <use style="fill:#0000ff;stroke:#0000ff;" x="83.62375" xlink:href="#m1da2eea323" y="129.950925"/>
    </g>
   </g>
   <g id="PathCollection_7">
    <g clip-path="url(#pc5a331a90f)">
     <use style="fill:#0000ff;stroke:#0000ff;" x="83.62375" xlink:href="#m1da2eea323" y="96.247725"/>
    </g>
   </g>
   <g id="PathCollection_8">
    <g clip-path="url(#pc5a331a90f)">
     <use style="fill:#0000ff;stroke:#0000ff;" x="83.62375" xlink:href="#m1da2eea323" y="136.474125"/>
    </g>
   </g>
   <g id="PathCollection_9">
    <g clip-path="url(#pc5a331a90f)">
     <use style="fill:#0000ff;stroke:#0000ff;" x="83.62375" xlink:href="#m1da2eea323" y="133.973565"/>
    </g>
   </g>
   <g id="PathCollection_10">
    <g clip-path="url(#pc5a331a90f)">
     <use style="fill:#0000ff;stroke:#0000ff;" x="83.62375" xlink:href="#m1da2eea323" y="131.473005"/>
    </g>
   </g>
   <g id="PathCollection_11">
    <g clip-path="url(#pc5a331a90f)">
     <use style="fill:#0000ff;stroke:#0000ff;" x="117.10375" xlink:href="#m1da2eea323" y="125.602125"/>
    </g>
   </g>
   <g id="PathCollection_12">
    <g clip-path="url(#pc5a331a90f)">
     <use style="fill:#0000ff;stroke:#0000ff;" x="117.10375" xlink:href="#m1da2eea323" y="133.973565"/>
    </g>
   </g>
   <g id="PathCollection_13">
    <g clip-path="url(#pc5a331a90f)">
     <use style="fill:#0000ff;stroke:#0000ff;" x="117.10375" xlink:href="#m1da2eea323" y="137.778765"/>
    </g>
   </g>
   <g id="PathCollection_14">
    <g clip-path="url(#pc5a331a90f)">
     <use style="fill:#0000ff;stroke:#0000ff;" x="117.10375" xlink:href="#m1da2eea323" y="131.473005"/>
    </g>
   </g>
   <g id="PathCollection_15">
    <g clip-path="url(#pc5a331a90f)">
     <use style="fill:#0000ff;stroke:#0000ff;" x="117.10375" xlink:href="#m1da2eea323" y="133.973565"/>
    </g>
   </g>
   <g id="PathCollection_16">
    <g clip-path="url(#pc5a331a90f)">
     <use style="fill:#0000ff;stroke:#0000ff;" x="117.10375" xlink:href="#m1da2eea323" y="138.974685"/>
    </g>
   </g>
   <g id="PathCollection_17">
    <g clip-path="url(#pc5a331a90f)">
     <use style="fill:#0000ff;stroke:#0000ff;" x="117.10375" xlink:href="#m1da2eea323" y="47.323725"/>
    </g>
   </g>
   <g id="PathCollection_18">
    <g clip-path="url(#pc5a331a90f)">
     <use style="fill:#0000ff;stroke:#0000ff;" x="117.10375" xlink:href="#m1da2eea323" y="83.201325"/>
    </g>
   </g>
   <g id="PathCollection_19">
    <g clip-path="url(#pc5a331a90f)"/>
   </g>
   <g id="PathCollection_20">
    <g clip-path="url(#pc5a331a90f)">
     <use style="fill:#0000ff;stroke:#0000ff;" x="117.10375" xlink:href="#m1da2eea323" y="135.278205"/>
    </g>
   </g>
   <g id="PathCollection_21">
    <g clip-path="url(#pc5a331a90f)">
     <use style="fill:#0000ff;stroke:#0000ff;" x="150.58375" xlink:href="#m1da2eea323" y="138.974685"/>
    </g>
   </g>
   <g id="PathCollection_22">
    <g clip-path="url(#pc5a331a90f)">
     <use style="fill:#0000ff;stroke:#0000ff;" x="150.58375" xlink:href="#m1da2eea323" y="133.973565"/>
    </g>
   </g>
   <g id="PathCollection_23">
    <g clip-path="url(#pc5a331a90f)">
     <use style="fill:#0000ff;stroke:#0000ff;" x="150.58375" xlink:href="#m1da2eea323" y="137.778765"/>
    </g>
   </g>
   <g id="PathCollection_24">
    <g clip-path="url(#pc5a331a90f)">
     <use style="fill:#0000ff;stroke:#0000ff;" x="150.58375" xlink:href="#m1da2eea323" y="120.166125"/>
    </g>
   </g>
   <g id="PathCollection_25">
    <g clip-path="url(#pc5a331a90f)">
     <use style="fill:#0000ff;stroke:#0000ff;" x="150.58375" xlink:href="#m1da2eea323" y="34.277325"/>
    </g>
   </g>
   <g id="PathCollection_26">
    <g clip-path="url(#pc5a331a90f)">
     <use style="fill:#0000ff;stroke:#0000ff;" x="150.58375" xlink:href="#m1da2eea323" y="101.683725"/>
    </g>
   </g>
   <g id="PathCollection_27">
    <g clip-path="url(#pc5a331a90f)">
     <use style="fill:#0000ff;stroke:#0000ff;" x="150.58375" xlink:href="#m1da2eea323" y="71.242125"/>
    </g>
   </g>
   <g id="PathCollection_28">
    <g clip-path="url(#pc5a331a90f)">
     <use style="fill:#0000ff;stroke:#0000ff;" x="150.58375" xlink:href="#m1da2eea323" y="138.974685"/>
    </g>
   </g>
   <g id="PathCollection_29">
    <g clip-path="url(#pc5a331a90f)">
     <use style="fill:#0000ff;stroke:#0000ff;" x="150.58375" xlink:href="#m1da2eea323" y="97.334925"/>
    </g>
   </g>
   <g id="PathCollection_30">
    <g clip-path="url(#pc5a331a90f)">
     <use style="fill:#0000ff;stroke:#0000ff;" x="150.58375" xlink:href="#m1da2eea323" y="112.555725"/>
    </g>
   </g>
   <g id="PathCollection_31">
    <g clip-path="url(#pc5a331a90f)">
     <use style="fill:#0000ff;stroke:#0000ff;" x="217.54375" xlink:href="#m1da2eea323" y="135.278205"/>
    </g>
   </g>
   <g id="PathCollection_32">
    <g clip-path="url(#pc5a331a90f)">
     <use style="fill:#0000ff;stroke:#0000ff;" x="217.54375" xlink:href="#m1da2eea323" y="137.778765"/>
    </g>
   </g>
   <g id="PathCollection_33">
    <g clip-path="url(#pc5a331a90f)">
     <use style="fill:#0000ff;stroke:#0000ff;" x="217.54375" xlink:href="#m1da2eea323" y="128.863725"/>
    </g>
   </g>
   <g id="PathCollection_34">
    <g clip-path="url(#pc5a331a90f)">
     <use style="fill:#0000ff;stroke:#0000ff;" x="217.54375" xlink:href="#m1da2eea323" y="39.713325"/>
    </g>
   </g>
   <g id="PathCollection_35">
    <g clip-path="url(#pc5a331a90f)">
     <use style="fill:#0000ff;stroke:#0000ff;" x="217.54375" xlink:href="#m1da2eea323" y="138.974685"/>
    </g>
   </g>
   <g id="PathCollection_36">
    <g clip-path="url(#pc5a331a90f)">
     <use style="fill:#0000ff;stroke:#0000ff;" x="217.54375" xlink:href="#m1da2eea323" y="137.778765"/>
    </g>
   </g>
   <g id="PathCollection_37">
    <g clip-path="url(#pc5a331a90f)">
     <use style="fill:#0000ff;stroke:#0000ff;" x="217.54375" xlink:href="#m1da2eea323" y="127.776525"/>
    </g>
   </g>
   <g id="PathCollection_38">
    <g clip-path="url(#pc5a331a90f)">
     <use style="fill:#0000ff;stroke:#0000ff;" x="217.54375" xlink:href="#m1da2eea323" y="137.778765"/>
    </g>
   </g>
   <g id="PathCollection_39">
    <g clip-path="url(#pc5a331a90f)">
     <use style="fill:#0000ff;stroke:#0000ff;" x="217.54375" xlink:href="#m1da2eea323" y="133.973565"/>
    </g>
   </g>
   <g id="PathCollection_40">
    <g clip-path="url(#pc5a331a90f)">
     <use style="fill:#0000ff;stroke:#0000ff;" x="217.54375" xlink:href="#m1da2eea323" y="127.776525"/>
    </g>
   </g>
   <g id="PathCollection_41">
    <g clip-path="url(#pc5a331a90f)">
     <use style="fill:#0000ff;stroke:#0000ff;" x="284.50375" xlink:href="#m1da2eea323" y="145.280445"/>
    </g>
   </g>
   <g id="PathCollection_42">
    <g clip-path="url(#pc5a331a90f)">
     <use style="fill:#0000ff;stroke:#0000ff;" x="284.50375" xlink:href="#m1da2eea323" y="136.474125"/>
    </g>
   </g>
   <g id="PathCollection_43">
    <g clip-path="url(#pc5a331a90f)">
     <use style="fill:#0000ff;stroke:#0000ff;" x="284.50375" xlink:href="#m1da2eea323" y="132.668925"/>
    </g>
   </g>
   <g id="PathCollection_44">
    <g clip-path="url(#pc5a331a90f)">
     <use style="fill:#0000ff;stroke:#0000ff;" x="284.50375" xlink:href="#m1da2eea323" y="137.778765"/>
    </g>
   </g>
   <g id="PathCollection_45">
    <g clip-path="url(#pc5a331a90f)">
     <use style="fill:#0000ff;stroke:#0000ff;" x="284.50375" xlink:href="#m1da2eea323" y="138.974685"/>
    </g>
   </g>
   <g id="PathCollection_46">
    <g clip-path="url(#pc5a331a90f)">
     <use style="fill:#0000ff;stroke:#0000ff;" x="284.50375" xlink:href="#m1da2eea323" y="133.973565"/>
    </g>
   </g>
   <g id="PathCollection_47">
    <g clip-path="url(#pc5a331a90f)">
     <use style="fill:#0000ff;stroke:#0000ff;" x="284.50375" xlink:href="#m1da2eea323" y="132.668925"/>
    </g>
   </g>
   <g id="PathCollection_48">
    <g clip-path="url(#pc5a331a90f)">
     <use style="fill:#0000ff;stroke:#0000ff;" x="284.50375" xlink:href="#m1da2eea323" y="115.817325"/>
    </g>
   </g>
   <g id="PathCollection_49">
    <g clip-path="url(#pc5a331a90f)">
     <use style="fill:#0000ff;stroke:#0000ff;" x="284.50375" xlink:href="#m1da2eea323" y="91.898925"/>
    </g>
   </g>
   <g id="PathCollection_50">
    <g clip-path="url(#pc5a331a90f)">
     <use style="fill:#0000ff;stroke:#0000ff;" x="284.50375" xlink:href="#m1da2eea323" y="103.858125"/>
    </g>
   </g>
   <g id="PathCollection_51">
    <g clip-path="url(#pc5a331a90f)">
     <use style="fill:#0000ff;stroke:#0000ff;" x="351.46375" xlink:href="#m1da2eea323" y="136.474125"/>
    </g>
   </g>
   <g id="PathCollection_52">
    <g clip-path="url(#pc5a331a90f)">
     <use style="fill:#0000ff;stroke:#0000ff;" x="351.46375" xlink:href="#m1da2eea323" y="137.778765"/>
    </g>
   </g>
   <g id="PathCollection_53">
    <g clip-path="url(#pc5a331a90f)">
     <use style="fill:#0000ff;stroke:#0000ff;" x="351.46375" xlink:href="#m1da2eea323" y="131.473005"/>
    </g>
   </g>
   <g id="PathCollection_54">
    <g clip-path="url(#pc5a331a90f)">
     <use style="fill:#0000ff;stroke:#0000ff;" x="351.46375" xlink:href="#m1da2eea323" y="102.770925"/>
    </g>
   </g>
   <g id="PathCollection_55">
    <g clip-path="url(#pc5a331a90f)">
     <use style="fill:#0000ff;stroke:#0000ff;" x="351.46375" xlink:href="#m1da2eea323" y="115.817325"/>
    </g>
   </g>
   <g id="PathCollection_56">
    <g clip-path="url(#pc5a331a90f)">
     <use style="fill:#0000ff;stroke:#0000ff;" x="351.46375" xlink:href="#m1da2eea323" y="123.427725"/>
    </g>
   </g>
   <g id="PathCollection_57">
    <g clip-path="url(#pc5a331a90f)">
     <use style="fill:#0000ff;stroke:#0000ff;" x="351.46375" xlink:href="#m1da2eea323" y="137.778765"/>
    </g>
   </g>
   <g id="PathCollection_58">
    <g clip-path="url(#pc5a331a90f)">
     <use style="fill:#0000ff;stroke:#0000ff;" x="351.46375" xlink:href="#m1da2eea323" y="127.776525"/>
    </g>
   </g>
   <g id="PathCollection_59">
    <g clip-path="url(#pc5a331a90f)">
     <use style="fill:#0000ff;stroke:#0000ff;" x="351.46375" xlink:href="#m1da2eea323" y="121.253325"/>
    </g>
   </g>
   <g id="PathCollection_60">
    <g clip-path="url(#pc5a331a90f)">
     <use style="fill:#0000ff;stroke:#0000ff;" x="351.46375" xlink:href="#m1da2eea323" y="137.778765"/>
    </g>
   </g>
   <g id="matplotlib.axis_1">
    <g id="xtick_1">
     <g id="line2d_1">
      <defs>
       <path d="M 0 0 
L 0 3.5 
" id="m081fa622de" style="stroke:#000000;stroke-width:0.8;"/>
      </defs>
      <g>
       <use style="stroke:#000000;stroke-width:0.8;" x="83.62375" xlink:href="#m081fa622de" y="239.758125"/>
      </g>
     </g>
     <g id="text_1">
      <!-- 0 -->
      <g transform="translate(80.4425 254.356562)scale(0.1 -0.1)">
       <defs>
        <path d="M 2034 4250 
Q 1547 4250 1301 3770 
Q 1056 3291 1056 2328 
Q 1056 1369 1301 889 
Q 1547 409 2034 409 
Q 2525 409 2770 889 
Q 3016 1369 3016 2328 
Q 3016 3291 2770 3770 
Q 2525 4250 2034 4250 
z
M 2034 4750 
Q 2819 4750 3233 4129 
Q 3647 3509 3647 2328 
Q 3647 1150 3233 529 
Q 2819 -91 2034 -91 
Q 1250 -91 836 529 
Q 422 1150 422 2328 
Q 422 3509 836 4129 
Q 1250 4750 2034 4750 
z
" id="DejaVuSans-30" transform="scale(0.015625)"/>
       </defs>
       <use xlink:href="#DejaVuSans-30"/>
      </g>
     </g>
    </g>
    <g id="xtick_2">
     <g id="line2d_2">
      <g>
       <use style="stroke:#000000;stroke-width:0.8;" x="150.58375" xlink:href="#m081fa622de" y="239.758125"/>
      </g>
     </g>
     <g id="text_2">
      <!-- 10 -->
      <g transform="translate(144.22125 254.356562)scale(0.1 -0.1)">
       <defs>
        <path d="M 794 531 
L 1825 531 
L 1825 4091 
L 703 3866 
L 703 4441 
L 1819 4666 
L 2450 4666 
L 2450 531 
L 3481 531 
L 3481 0 
L 794 0 
L 794 531 
z
" id="DejaVuSans-31" transform="scale(0.015625)"/>
       </defs>
       <use xlink:href="#DejaVuSans-31"/>
       <use x="63.623047" xlink:href="#DejaVuSans-30"/>
      </g>
     </g>
    </g>
    <g id="xtick_3">
     <g id="line2d_3">
      <g>
       <use style="stroke:#000000;stroke-width:0.8;" x="217.54375" xlink:href="#m081fa622de" y="239.758125"/>
      </g>
     </g>
     <g id="text_3">
      <!-- 20 -->
      <g transform="translate(211.18125 254.356562)scale(0.1 -0.1)">
       <defs>
        <path d="M 1228 531 
L 3431 531 
L 3431 0 
L 469 0 
L 469 531 
Q 828 903 1448 1529 
Q 2069 2156 2228 2338 
Q 2531 2678 2651 2914 
Q 2772 3150 2772 3378 
Q 2772 3750 2511 3984 
Q 2250 4219 1831 4219 
Q 1534 4219 1204 4116 
Q 875 4013 500 3803 
L 500 4441 
Q 881 4594 1212 4672 
Q 1544 4750 1819 4750 
Q 2544 4750 2975 4387 
Q 3406 4025 3406 3419 
Q 3406 3131 3298 2873 
Q 3191 2616 2906 2266 
Q 2828 2175 2409 1742 
Q 1991 1309 1228 531 
z
" id="DejaVuSans-32" transform="scale(0.015625)"/>
       </defs>
       <use xlink:href="#DejaVuSans-32"/>
       <use x="63.623047" xlink:href="#DejaVuSans-30"/>
      </g>
     </g>
    </g>
    <g id="xtick_4">
     <g id="line2d_4">
      <g>
       <use style="stroke:#000000;stroke-width:0.8;" x="284.50375" xlink:href="#m081fa622de" y="239.758125"/>
      </g>
     </g>
     <g id="text_4">
      <!-- 30 -->
      <g transform="translate(278.14125 254.356562)scale(0.1 -0.1)">
       <defs>
        <path d="M 2597 2516 
Q 3050 2419 3304 2112 
Q 3559 1806 3559 1356 
Q 3559 666 3084 287 
Q 2609 -91 1734 -91 
Q 1441 -91 1130 -33 
Q 819 25 488 141 
L 488 750 
Q 750 597 1062 519 
Q 1375 441 1716 441 
Q 2309 441 2620 675 
Q 2931 909 2931 1356 
Q 2931 1769 2642 2001 
Q 2353 2234 1838 2234 
L 1294 2234 
L 1294 2753 
L 1863 2753 
Q 2328 2753 2575 2939 
Q 2822 3125 2822 3475 
Q 2822 3834 2567 4026 
Q 2313 4219 1838 4219 
Q 1578 4219 1281 4162 
Q 984 4106 628 3988 
L 628 4550 
Q 988 4650 1302 4700 
Q 1616 4750 1894 4750 
Q 2613 4750 3031 4423 
Q 3450 4097 3450 3541 
Q 3450 3153 3228 2886 
Q 3006 2619 2597 2516 
z
" id="DejaVuSans-33" transform="scale(0.015625)"/>
       </defs>
       <use xlink:href="#DejaVuSans-33"/>
       <use x="63.623047" xlink:href="#DejaVuSans-30"/>
      </g>
     </g>
    </g>
    <g id="xtick_5">
     <g id="line2d_5">
      <g>
       <use style="stroke:#000000;stroke-width:0.8;" x="351.46375" xlink:href="#m081fa622de" y="239.758125"/>
      </g>
     </g>
     <g id="text_5">
      <!-- 40 -->
      <g transform="translate(345.10125 254.356562)scale(0.1 -0.1)">
       <defs>
        <path d="M 2419 4116 
L 825 1625 
L 2419 1625 
L 2419 4116 
z
M 2253 4666 
L 3047 4666 
L 3047 1625 
L 3713 1625 
L 3713 1100 
L 3047 1100 
L 3047 0 
L 2419 0 
L 2419 1100 
L 313 1100 
L 313 1709 
L 2253 4666 
z
" id="DejaVuSans-34" transform="scale(0.015625)"/>
       </defs>
       <use xlink:href="#DejaVuSans-34"/>
       <use x="63.623047" xlink:href="#DejaVuSans-30"/>
      </g>
     </g>
    </g>
    <g id="text_6">
     <!-- Gain of interference source [dB] -->
     <g transform="translate(137.263281 268.034687)scale(0.1 -0.1)">
      <defs>
       <path d="M 3809 666 
L 3809 1919 
L 2778 1919 
L 2778 2438 
L 4434 2438 
L 4434 434 
Q 4069 175 3628 42 
Q 3188 -91 2688 -91 
Q 1594 -91 976 548 
Q 359 1188 359 2328 
Q 359 3472 976 4111 
Q 1594 4750 2688 4750 
Q 3144 4750 3555 4637 
Q 3966 4525 4313 4306 
L 4313 3634 
Q 3963 3931 3569 4081 
Q 3175 4231 2741 4231 
Q 1884 4231 1454 3753 
Q 1025 3275 1025 2328 
Q 1025 1384 1454 906 
Q 1884 428 2741 428 
Q 3075 428 3337 486 
Q 3600 544 3809 666 
z
" id="DejaVuSans-47" transform="scale(0.015625)"/>
       <path d="M 2194 1759 
Q 1497 1759 1228 1600 
Q 959 1441 959 1056 
Q 959 750 1161 570 
Q 1363 391 1709 391 
Q 2188 391 2477 730 
Q 2766 1069 2766 1631 
L 2766 1759 
L 2194 1759 
z
M 3341 1997 
L 3341 0 
L 2766 0 
L 2766 531 
Q 2569 213 2275 61 
Q 1981 -91 1556 -91 
Q 1019 -91 701 211 
Q 384 513 384 1019 
Q 384 1609 779 1909 
Q 1175 2209 1959 2209 
L 2766 2209 
L 2766 2266 
Q 2766 2663 2505 2880 
Q 2244 3097 1772 3097 
Q 1472 3097 1187 3025 
Q 903 2953 641 2809 
L 641 3341 
Q 956 3463 1253 3523 
Q 1550 3584 1831 3584 
Q 2591 3584 2966 3190 
Q 3341 2797 3341 1997 
z
" id="DejaVuSans-61" transform="scale(0.015625)"/>
       <path d="M 603 3500 
L 1178 3500 
L 1178 0 
L 603 0 
L 603 3500 
z
M 603 4863 
L 1178 4863 
L 1178 4134 
L 603 4134 
L 603 4863 
z
" id="DejaVuSans-69" transform="scale(0.015625)"/>
       <path d="M 3513 2113 
L 3513 0 
L 2938 0 
L 2938 2094 
Q 2938 2591 2744 2837 
Q 2550 3084 2163 3084 
Q 1697 3084 1428 2787 
Q 1159 2491 1159 1978 
L 1159 0 
L 581 0 
L 581 3500 
L 1159 3500 
L 1159 2956 
Q 1366 3272 1645 3428 
Q 1925 3584 2291 3584 
Q 2894 3584 3203 3211 
Q 3513 2838 3513 2113 
z
" id="DejaVuSans-6e" transform="scale(0.015625)"/>
       <path id="DejaVuSans-20" transform="scale(0.015625)"/>
       <path d="M 1959 3097 
Q 1497 3097 1228 2736 
Q 959 2375 959 1747 
Q 959 1119 1226 758 
Q 1494 397 1959 397 
Q 2419 397 2687 759 
Q 2956 1122 2956 1747 
Q 2956 2369 2687 2733 
Q 2419 3097 1959 3097 
z
M 1959 3584 
Q 2709 3584 3137 3096 
Q 3566 2609 3566 1747 
Q 3566 888 3137 398 
Q 2709 -91 1959 -91 
Q 1206 -91 779 398 
Q 353 888 353 1747 
Q 353 2609 779 3096 
Q 1206 3584 1959 3584 
z
" id="DejaVuSans-6f" transform="scale(0.015625)"/>
       <path d="M 2375 4863 
L 2375 4384 
L 1825 4384 
Q 1516 4384 1395 4259 
Q 1275 4134 1275 3809 
L 1275 3500 
L 2222 3500 
L 2222 3053 
L 1275 3053 
L 1275 0 
L 697 0 
L 697 3053 
L 147 3053 
L 147 3500 
L 697 3500 
L 697 3744 
Q 697 4328 969 4595 
Q 1241 4863 1831 4863 
L 2375 4863 
z
" id="DejaVuSans-66" transform="scale(0.015625)"/>
       <path d="M 1172 4494 
L 1172 3500 
L 2356 3500 
L 2356 3053 
L 1172 3053 
L 1172 1153 
Q 1172 725 1289 603 
Q 1406 481 1766 481 
L 2356 481 
L 2356 0 
L 1766 0 
Q 1100 0 847 248 
Q 594 497 594 1153 
L 594 3053 
L 172 3053 
L 172 3500 
L 594 3500 
L 594 4494 
L 1172 4494 
z
" id="DejaVuSans-74" transform="scale(0.015625)"/>
       <path d="M 3597 1894 
L 3597 1613 
L 953 1613 
Q 991 1019 1311 708 
Q 1631 397 2203 397 
Q 2534 397 2845 478 
Q 3156 559 3463 722 
L 3463 178 
Q 3153 47 2828 -22 
Q 2503 -91 2169 -91 
Q 1331 -91 842 396 
Q 353 884 353 1716 
Q 353 2575 817 3079 
Q 1281 3584 2069 3584 
Q 2775 3584 3186 3129 
Q 3597 2675 3597 1894 
z
M 3022 2063 
Q 3016 2534 2758 2815 
Q 2500 3097 2075 3097 
Q 1594 3097 1305 2825 
Q 1016 2553 972 2059 
L 3022 2063 
z
" id="DejaVuSans-65" transform="scale(0.015625)"/>
       <path d="M 2631 2963 
Q 2534 3019 2420 3045 
Q 2306 3072 2169 3072 
Q 1681 3072 1420 2755 
Q 1159 2438 1159 1844 
L 1159 0 
L 581 0 
L 581 3500 
L 1159 3500 
L 1159 2956 
Q 1341 3275 1631 3429 
Q 1922 3584 2338 3584 
Q 2397 3584 2469 3576 
Q 2541 3569 2628 3553 
L 2631 2963 
z
" id="DejaVuSans-72" transform="scale(0.015625)"/>
       <path d="M 3122 3366 
L 3122 2828 
Q 2878 2963 2633 3030 
Q 2388 3097 2138 3097 
Q 1578 3097 1268 2742 
Q 959 2388 959 1747 
Q 959 1106 1268 751 
Q 1578 397 2138 397 
Q 2388 397 2633 464 
Q 2878 531 3122 666 
L 3122 134 
Q 2881 22 2623 -34 
Q 2366 -91 2075 -91 
Q 1284 -91 818 406 
Q 353 903 353 1747 
Q 353 2603 823 3093 
Q 1294 3584 2113 3584 
Q 2378 3584 2631 3529 
Q 2884 3475 3122 3366 
z
" id="DejaVuSans-63" transform="scale(0.015625)"/>
       <path d="M 2834 3397 
L 2834 2853 
Q 2591 2978 2328 3040 
Q 2066 3103 1784 3103 
Q 1356 3103 1142 2972 
Q 928 2841 928 2578 
Q 928 2378 1081 2264 
Q 1234 2150 1697 2047 
L 1894 2003 
Q 2506 1872 2764 1633 
Q 3022 1394 3022 966 
Q 3022 478 2636 193 
Q 2250 -91 1575 -91 
Q 1294 -91 989 -36 
Q 684 19 347 128 
L 347 722 
Q 666 556 975 473 
Q 1284 391 1588 391 
Q 1994 391 2212 530 
Q 2431 669 2431 922 
Q 2431 1156 2273 1281 
Q 2116 1406 1581 1522 
L 1381 1569 
Q 847 1681 609 1914 
Q 372 2147 372 2553 
Q 372 3047 722 3315 
Q 1072 3584 1716 3584 
Q 2034 3584 2315 3537 
Q 2597 3491 2834 3397 
z
" id="DejaVuSans-73" transform="scale(0.015625)"/>
       <path d="M 544 1381 
L 544 3500 
L 1119 3500 
L 1119 1403 
Q 1119 906 1312 657 
Q 1506 409 1894 409 
Q 2359 409 2629 706 
Q 2900 1003 2900 1516 
L 2900 3500 
L 3475 3500 
L 3475 0 
L 2900 0 
L 2900 538 
Q 2691 219 2414 64 
Q 2138 -91 1772 -91 
Q 1169 -91 856 284 
Q 544 659 544 1381 
z
M 1991 3584 
L 1991 3584 
z
" id="DejaVuSans-75" transform="scale(0.015625)"/>
       <path d="M 550 4863 
L 1875 4863 
L 1875 4416 
L 1125 4416 
L 1125 -397 
L 1875 -397 
L 1875 -844 
L 550 -844 
L 550 4863 
z
" id="DejaVuSans-5b" transform="scale(0.015625)"/>
       <path d="M 2906 2969 
L 2906 4863 
L 3481 4863 
L 3481 0 
L 2906 0 
L 2906 525 
Q 2725 213 2448 61 
Q 2172 -91 1784 -91 
Q 1150 -91 751 415 
Q 353 922 353 1747 
Q 353 2572 751 3078 
Q 1150 3584 1784 3584 
Q 2172 3584 2448 3432 
Q 2725 3281 2906 2969 
z
M 947 1747 
Q 947 1113 1208 752 
Q 1469 391 1925 391 
Q 2381 391 2643 752 
Q 2906 1113 2906 1747 
Q 2906 2381 2643 2742 
Q 2381 3103 1925 3103 
Q 1469 3103 1208 2742 
Q 947 2381 947 1747 
z
" id="DejaVuSans-64" transform="scale(0.015625)"/>
       <path d="M 1259 2228 
L 1259 519 
L 2272 519 
Q 2781 519 3026 730 
Q 3272 941 3272 1375 
Q 3272 1813 3026 2020 
Q 2781 2228 2272 2228 
L 1259 2228 
z
M 1259 4147 
L 1259 2741 
L 2194 2741 
Q 2656 2741 2882 2914 
Q 3109 3088 3109 3444 
Q 3109 3797 2882 3972 
Q 2656 4147 2194 4147 
L 1259 4147 
z
M 628 4666 
L 2241 4666 
Q 2963 4666 3353 4366 
Q 3744 4066 3744 3513 
Q 3744 3084 3544 2831 
Q 3344 2578 2956 2516 
Q 3422 2416 3680 2098 
Q 3938 1781 3938 1306 
Q 3938 681 3513 340 
Q 3088 0 2303 0 
L 628 0 
L 628 4666 
z
" id="DejaVuSans-42" transform="scale(0.015625)"/>
       <path d="M 1947 4863 
L 1947 -844 
L 622 -844 
L 622 -397 
L 1369 -397 
L 1369 4416 
L 622 4416 
L 622 4863 
L 1947 4863 
z
" id="DejaVuSans-5d" transform="scale(0.015625)"/>
      </defs>
      <use xlink:href="#DejaVuSans-47"/>
      <use x="77.490234" xlink:href="#DejaVuSans-61"/>
      <use x="138.769531" xlink:href="#DejaVuSans-69"/>
      <use x="166.552734" xlink:href="#DejaVuSans-6e"/>
      <use x="229.931641" xlink:href="#DejaVuSans-20"/>
      <use x="261.71875" xlink:href="#DejaVuSans-6f"/>
      <use x="322.900391" xlink:href="#DejaVuSans-66"/>
      <use x="358.105469" xlink:href="#DejaVuSans-20"/>
      <use x="389.892578" xlink:href="#DejaVuSans-69"/>
      <use x="417.675781" xlink:href="#DejaVuSans-6e"/>
      <use x="481.054688" xlink:href="#DejaVuSans-74"/>
      <use x="520.263672" xlink:href="#DejaVuSans-65"/>
      <use x="581.787109" xlink:href="#DejaVuSans-72"/>
      <use x="622.900391" xlink:href="#DejaVuSans-66"/>
      <use x="658.105469" xlink:href="#DejaVuSans-65"/>
      <use x="719.628906" xlink:href="#DejaVuSans-72"/>
      <use x="758.492188" xlink:href="#DejaVuSans-65"/>
      <use x="820.015625" xlink:href="#DejaVuSans-6e"/>
      <use x="883.394531" xlink:href="#DejaVuSans-63"/>
      <use x="938.375" xlink:href="#DejaVuSans-65"/>
      <use x="999.898438" xlink:href="#DejaVuSans-20"/>
      <use x="1031.685547" xlink:href="#DejaVuSans-73"/>
      <use x="1083.785156" xlink:href="#DejaVuSans-6f"/>
      <use x="1144.966797" xlink:href="#DejaVuSans-75"/>
      <use x="1208.345703" xlink:href="#DejaVuSans-72"/>
      <use x="1247.208984" xlink:href="#DejaVuSans-63"/>
      <use x="1302.189453" xlink:href="#DejaVuSans-65"/>
      <use x="1363.712891" xlink:href="#DejaVuSans-20"/>
      <use x="1395.5" xlink:href="#DejaVuSans-5b"/>
      <use x="1434.513672" xlink:href="#DejaVuSans-64"/>
      <use x="1497.990234" xlink:href="#DejaVuSans-42"/>
      <use x="1566.59375" xlink:href="#DejaVuSans-5d"/>
     </g>
    </g>
   </g>
   <g id="matplotlib.axis_2">
    <g id="ytick_1">
     <g id="line2d_6">
      <defs>
       <path d="M 0 0 
L -3.5 0 
" id="mf71dcc1606" style="stroke:#000000;stroke-width:0.8;"/>
      </defs>
      <g>
       <use style="stroke:#000000;stroke-width:0.8;" x="50.14375" xlink:href="#mf71dcc1606" y="239.758125"/>
      </g>
     </g>
     <g id="text_7">
      <!-- 0.00 -->
      <g transform="translate(20.878125 243.557344)scale(0.1 -0.1)">
       <defs>
        <path d="M 684 794 
L 1344 794 
L 1344 0 
L 684 0 
L 684 794 
z
" id="DejaVuSans-2e" transform="scale(0.015625)"/>
       </defs>
       <use xlink:href="#DejaVuSans-30"/>
       <use x="63.623047" xlink:href="#DejaVuSans-2e"/>
       <use x="95.410156" xlink:href="#DejaVuSans-30"/>
       <use x="159.033203" xlink:href="#DejaVuSans-30"/>
      </g>
     </g>
    </g>
    <g id="ytick_2">
     <g id="line2d_7">
      <g>
       <use style="stroke:#000000;stroke-width:0.8;" x="50.14375" xlink:href="#mf71dcc1606" y="212.578125"/>
      </g>
     </g>
     <g id="text_8">
      <!-- 0.25 -->
      <g transform="translate(20.878125 216.377344)scale(0.1 -0.1)">
       <defs>
        <path d="M 691 4666 
L 3169 4666 
L 3169 4134 
L 1269 4134 
L 1269 2991 
Q 1406 3038 1543 3061 
Q 1681 3084 1819 3084 
Q 2600 3084 3056 2656 
Q 3513 2228 3513 1497 
Q 3513 744 3044 326 
Q 2575 -91 1722 -91 
Q 1428 -91 1123 -41 
Q 819 9 494 109 
L 494 744 
Q 775 591 1075 516 
Q 1375 441 1709 441 
Q 2250 441 2565 725 
Q 2881 1009 2881 1497 
Q 2881 1984 2565 2268 
Q 2250 2553 1709 2553 
Q 1456 2553 1204 2497 
Q 953 2441 691 2322 
L 691 4666 
z
" id="DejaVuSans-35" transform="scale(0.015625)"/>
       </defs>
       <use xlink:href="#DejaVuSans-30"/>
       <use x="63.623047" xlink:href="#DejaVuSans-2e"/>
       <use x="95.410156" xlink:href="#DejaVuSans-32"/>
       <use x="159.033203" xlink:href="#DejaVuSans-35"/>
      </g>
     </g>
    </g>
    <g id="ytick_3">
     <g id="line2d_8">
      <g>
       <use style="stroke:#000000;stroke-width:0.8;" x="50.14375" xlink:href="#mf71dcc1606" y="185.398125"/>
      </g>
     </g>
     <g id="text_9">
      <!-- 0.50 -->
      <g transform="translate(20.878125 189.197344)scale(0.1 -0.1)">
       <use xlink:href="#DejaVuSans-30"/>
       <use x="63.623047" xlink:href="#DejaVuSans-2e"/>
       <use x="95.410156" xlink:href="#DejaVuSans-35"/>
       <use x="159.033203" xlink:href="#DejaVuSans-30"/>
      </g>
     </g>
    </g>
    <g id="ytick_4">
     <g id="line2d_9">
      <g>
       <use style="stroke:#000000;stroke-width:0.8;" x="50.14375" xlink:href="#mf71dcc1606" y="158.218125"/>
      </g>
     </g>
     <g id="text_10">
      <!-- 0.75 -->
      <g transform="translate(20.878125 162.017344)scale(0.1 -0.1)">
       <defs>
        <path d="M 525 4666 
L 3525 4666 
L 3525 4397 
L 1831 0 
L 1172 0 
L 2766 4134 
L 525 4134 
L 525 4666 
z
" id="DejaVuSans-37" transform="scale(0.015625)"/>
       </defs>
       <use xlink:href="#DejaVuSans-30"/>
       <use x="63.623047" xlink:href="#DejaVuSans-2e"/>
       <use x="95.410156" xlink:href="#DejaVuSans-37"/>
       <use x="159.033203" xlink:href="#DejaVuSans-35"/>
      </g>
     </g>
    </g>
    <g id="ytick_5">
     <g id="line2d_10">
      <g>
       <use style="stroke:#000000;stroke-width:0.8;" x="50.14375" xlink:href="#mf71dcc1606" y="131.038125"/>
      </g>
     </g>
     <g id="text_11">
      <!-- 1.00 -->
      <g transform="translate(20.878125 134.837344)scale(0.1 -0.1)">
       <use xlink:href="#DejaVuSans-31"/>
       <use x="63.623047" xlink:href="#DejaVuSans-2e"/>
       <use x="95.410156" xlink:href="#DejaVuSans-30"/>
       <use x="159.033203" xlink:href="#DejaVuSans-30"/>
      </g>
     </g>
    </g>
    <g id="ytick_6">
     <g id="line2d_11">
      <g>
       <use style="stroke:#000000;stroke-width:0.8;" x="50.14375" xlink:href="#mf71dcc1606" y="103.858125"/>
      </g>
     </g>
     <g id="text_12">
      <!-- 1.25 -->
      <g transform="translate(20.878125 107.657344)scale(0.1 -0.1)">
       <use xlink:href="#DejaVuSans-31"/>
       <use x="63.623047" xlink:href="#DejaVuSans-2e"/>
       <use x="95.410156" xlink:href="#DejaVuSans-32"/>
       <use x="159.033203" xlink:href="#DejaVuSans-35"/>
      </g>
     </g>
    </g>
    <g id="ytick_7">
     <g id="line2d_12">
      <g>
       <use style="stroke:#000000;stroke-width:0.8;" x="50.14375" xlink:href="#mf71dcc1606" y="76.678125"/>
      </g>
     </g>
     <g id="text_13">
      <!-- 1.50 -->
      <g transform="translate(20.878125 80.477344)scale(0.1 -0.1)">
       <use xlink:href="#DejaVuSans-31"/>
       <use x="63.623047" xlink:href="#DejaVuSans-2e"/>
       <use x="95.410156" xlink:href="#DejaVuSans-35"/>
       <use x="159.033203" xlink:href="#DejaVuSans-30"/>
      </g>
     </g>
    </g>
    <g id="ytick_8">
     <g id="line2d_13">
      <g>
       <use style="stroke:#000000;stroke-width:0.8;" x="50.14375" xlink:href="#mf71dcc1606" y="49.498125"/>
      </g>
     </g>
     <g id="text_14">
      <!-- 1.75 -->
      <g transform="translate(20.878125 53.297344)scale(0.1 -0.1)">
       <use xlink:href="#DejaVuSans-31"/>
       <use x="63.623047" xlink:href="#DejaVuSans-2e"/>
       <use x="95.410156" xlink:href="#DejaVuSans-37"/>
       <use x="159.033203" xlink:href="#DejaVuSans-35"/>
      </g>
     </g>
    </g>
    <g id="ytick_9">
     <g id="line2d_14">
      <g>
       <use style="stroke:#000000;stroke-width:0.8;" x="50.14375" xlink:href="#mf71dcc1606" y="22.318125"/>
      </g>
     </g>
     <g id="text_15">
      <!-- 2.00 -->
      <g transform="translate(20.878125 26.117344)scale(0.1 -0.1)">
       <use xlink:href="#DejaVuSans-32"/>
       <use x="63.623047" xlink:href="#DejaVuSans-2e"/>
       <use x="95.410156" xlink:href="#DejaVuSans-30"/>
       <use x="159.033203" xlink:href="#DejaVuSans-30"/>
      </g>
     </g>
    </g>
    <g id="text_16">
     <!-- Throughput [bits/sec] -->
     <g transform="translate(14.798438 184.811562)rotate(-90)scale(0.1 -0.1)">
      <defs>
       <path d="M -19 4666 
L 3928 4666 
L 3928 4134 
L 2272 4134 
L 2272 0 
L 1638 0 
L 1638 4134 
L -19 4134 
L -19 4666 
z
" id="DejaVuSans-54" transform="scale(0.015625)"/>
       <path d="M 3513 2113 
L 3513 0 
L 2938 0 
L 2938 2094 
Q 2938 2591 2744 2837 
Q 2550 3084 2163 3084 
Q 1697 3084 1428 2787 
Q 1159 2491 1159 1978 
L 1159 0 
L 581 0 
L 581 4863 
L 1159 4863 
L 1159 2956 
Q 1366 3272 1645 3428 
Q 1925 3584 2291 3584 
Q 2894 3584 3203 3211 
Q 3513 2838 3513 2113 
z
" id="DejaVuSans-68" transform="scale(0.015625)"/>
       <path d="M 2906 1791 
Q 2906 2416 2648 2759 
Q 2391 3103 1925 3103 
Q 1463 3103 1205 2759 
Q 947 2416 947 1791 
Q 947 1169 1205 825 
Q 1463 481 1925 481 
Q 2391 481 2648 825 
Q 2906 1169 2906 1791 
z
M 3481 434 
Q 3481 -459 3084 -895 
Q 2688 -1331 1869 -1331 
Q 1566 -1331 1297 -1286 
Q 1028 -1241 775 -1147 
L 775 -588 
Q 1028 -725 1275 -790 
Q 1522 -856 1778 -856 
Q 2344 -856 2625 -561 
Q 2906 -266 2906 331 
L 2906 616 
Q 2728 306 2450 153 
Q 2172 0 1784 0 
Q 1141 0 747 490 
Q 353 981 353 1791 
Q 353 2603 747 3093 
Q 1141 3584 1784 3584 
Q 2172 3584 2450 3431 
Q 2728 3278 2906 2969 
L 2906 3500 
L 3481 3500 
L 3481 434 
z
" id="DejaVuSans-67" transform="scale(0.015625)"/>
       <path d="M 1159 525 
L 1159 -1331 
L 581 -1331 
L 581 3500 
L 1159 3500 
L 1159 2969 
Q 1341 3281 1617 3432 
Q 1894 3584 2278 3584 
Q 2916 3584 3314 3078 
Q 3713 2572 3713 1747 
Q 3713 922 3314 415 
Q 2916 -91 2278 -91 
Q 1894 -91 1617 61 
Q 1341 213 1159 525 
z
M 3116 1747 
Q 3116 2381 2855 2742 
Q 2594 3103 2138 3103 
Q 1681 3103 1420 2742 
Q 1159 2381 1159 1747 
Q 1159 1113 1420 752 
Q 1681 391 2138 391 
Q 2594 391 2855 752 
Q 3116 1113 3116 1747 
z
" id="DejaVuSans-70" transform="scale(0.015625)"/>
       <path d="M 3116 1747 
Q 3116 2381 2855 2742 
Q 2594 3103 2138 3103 
Q 1681 3103 1420 2742 
Q 1159 2381 1159 1747 
Q 1159 1113 1420 752 
Q 1681 391 2138 391 
Q 2594 391 2855 752 
Q 3116 1113 3116 1747 
z
M 1159 2969 
Q 1341 3281 1617 3432 
Q 1894 3584 2278 3584 
Q 2916 3584 3314 3078 
Q 3713 2572 3713 1747 
Q 3713 922 3314 415 
Q 2916 -91 2278 -91 
Q 1894 -91 1617 61 
Q 1341 213 1159 525 
L 1159 0 
L 581 0 
L 581 4863 
L 1159 4863 
L 1159 2969 
z
" id="DejaVuSans-62" transform="scale(0.015625)"/>
       <path d="M 1625 4666 
L 2156 4666 
L 531 -594 
L 0 -594 
L 1625 4666 
z
" id="DejaVuSans-2f" transform="scale(0.015625)"/>
      </defs>
      <use xlink:href="#DejaVuSans-54"/>
      <use x="61.083984" xlink:href="#DejaVuSans-68"/>
      <use x="124.462891" xlink:href="#DejaVuSans-72"/>
      <use x="163.326172" xlink:href="#DejaVuSans-6f"/>
      <use x="224.507812" xlink:href="#DejaVuSans-75"/>
      <use x="287.886719" xlink:href="#DejaVuSans-67"/>
      <use x="351.363281" xlink:href="#DejaVuSans-68"/>
      <use x="414.742188" xlink:href="#DejaVuSans-70"/>
      <use x="478.21875" xlink:href="#DejaVuSans-75"/>
      <use x="541.597656" xlink:href="#DejaVuSans-74"/>
      <use x="580.806641" xlink:href="#DejaVuSans-20"/>
      <use x="612.59375" xlink:href="#DejaVuSans-5b"/>
      <use x="651.607422" xlink:href="#DejaVuSans-62"/>
      <use x="715.083984" xlink:href="#DejaVuSans-69"/>
      <use x="742.867188" xlink:href="#DejaVuSans-74"/>
      <use x="782.076172" xlink:href="#DejaVuSans-73"/>
      <use x="834.175781" xlink:href="#DejaVuSans-2f"/>
      <use x="867.867188" xlink:href="#DejaVuSans-73"/>
      <use x="919.966797" xlink:href="#DejaVuSans-65"/>
      <use x="981.490234" xlink:href="#DejaVuSans-63"/>
      <use x="1036.470703" xlink:href="#DejaVuSans-5d"/>
     </g>
    </g>
    <g id="text_17">
     <!-- 1e6 -->
     <g transform="translate(50.14375 19.318125)scale(0.1 -0.1)">
      <defs>
       <path d="M 2113 2584 
Q 1688 2584 1439 2293 
Q 1191 2003 1191 1497 
Q 1191 994 1439 701 
Q 1688 409 2113 409 
Q 2538 409 2786 701 
Q 3034 994 3034 1497 
Q 3034 2003 2786 2293 
Q 2538 2584 2113 2584 
z
M 3366 4563 
L 3366 3988 
Q 3128 4100 2886 4159 
Q 2644 4219 2406 4219 
Q 1781 4219 1451 3797 
Q 1122 3375 1075 2522 
Q 1259 2794 1537 2939 
Q 1816 3084 2150 3084 
Q 2853 3084 3261 2657 
Q 3669 2231 3669 1497 
Q 3669 778 3244 343 
Q 2819 -91 2113 -91 
Q 1303 -91 875 529 
Q 447 1150 447 2328 
Q 447 3434 972 4092 
Q 1497 4750 2381 4750 
Q 2619 4750 2861 4703 
Q 3103 4656 3366 4563 
z
" id="DejaVuSans-36" transform="scale(0.015625)"/>
      </defs>
      <use xlink:href="#DejaVuSans-31"/>
      <use x="63.623047" xlink:href="#DejaVuSans-65"/>
      <use x="125.146484" xlink:href="#DejaVuSans-36"/>
     </g>
    </g>
   </g>
   <g id="patch_3">
    <path d="M 50.14375 239.758125 
L 50.14375 22.318125 
" style="fill:none;stroke:#000000;stroke-linecap:square;stroke-linejoin:miter;stroke-width:0.8;"/>
   </g>
   <g id="patch_4">
    <path d="M 384.94375 239.758125 
L 384.94375 22.318125 
" style="fill:none;stroke:#000000;stroke-linecap:square;stroke-linejoin:miter;stroke-width:0.8;"/>
   </g>
   <g id="patch_5">
    <path d="M 50.14375 239.758125 
L 384.94375 239.758125 
" style="fill:none;stroke:#000000;stroke-linecap:square;stroke-linejoin:miter;stroke-width:0.8;"/>
   </g>
   <g id="patch_6">
    <path d="M 50.14375 22.318125 
L 384.94375 22.318125 
" style="fill:none;stroke:#000000;stroke-linecap:square;stroke-linejoin:miter;stroke-width:0.8;"/>
   </g>
   <g id="text_18">
    <!-- Single-node interference -->
    <g transform="translate(143.450313 16.318125)scale(0.12 -0.12)">
     <defs>
      <path d="M 3425 4513 
L 3425 3897 
Q 3066 4069 2747 4153 
Q 2428 4238 2131 4238 
Q 1616 4238 1336 4038 
Q 1056 3838 1056 3469 
Q 1056 3159 1242 3001 
Q 1428 2844 1947 2747 
L 2328 2669 
Q 3034 2534 3370 2195 
Q 3706 1856 3706 1288 
Q 3706 609 3251 259 
Q 2797 -91 1919 -91 
Q 1588 -91 1214 -16 
Q 841 59 441 206 
L 441 856 
Q 825 641 1194 531 
Q 1563 422 1919 422 
Q 2459 422 2753 634 
Q 3047 847 3047 1241 
Q 3047 1584 2836 1778 
Q 2625 1972 2144 2069 
L 1759 2144 
Q 1053 2284 737 2584 
Q 422 2884 422 3419 
Q 422 4038 858 4394 
Q 1294 4750 2059 4750 
Q 2388 4750 2728 4690 
Q 3069 4631 3425 4513 
z
" id="DejaVuSans-53" transform="scale(0.015625)"/>
      <path d="M 603 4863 
L 1178 4863 
L 1178 0 
L 603 0 
L 603 4863 
z
" id="DejaVuSans-6c" transform="scale(0.015625)"/>
      <path d="M 313 2009 
L 1997 2009 
L 1997 1497 
L 313 1497 
L 313 2009 
z
" id="DejaVuSans-2d" transform="scale(0.015625)"/>
     </defs>
     <use xlink:href="#DejaVuSans-53"/>
     <use x="63.476562" xlink:href="#DejaVuSans-69"/>
     <use x="91.259766" xlink:href="#DejaVuSans-6e"/>
     <use x="154.638672" xlink:href="#DejaVuSans-67"/>
     <use x="218.115234" xlink:href="#DejaVuSans-6c"/>
     <use x="245.898438" xlink:href="#DejaVuSans-65"/>
     <use x="307.421875" xlink:href="#DejaVuSans-2d"/>
     <use x="343.505859" xlink:href="#DejaVuSans-6e"/>
     <use x="406.884766" xlink:href="#DejaVuSans-6f"/>
     <use x="468.066406" xlink:href="#DejaVuSans-64"/>
     <use x="531.542969" xlink:href="#DejaVuSans-65"/>
     <use x="593.066406" xlink:href="#DejaVuSans-20"/>
     <use x="624.853516" xlink:href="#DejaVuSans-69"/>
     <use x="652.636719" xlink:href="#DejaVuSans-6e"/>
     <use x="716.015625" xlink:href="#DejaVuSans-74"/>
     <use x="755.224609" xlink:href="#DejaVuSans-65"/>
     <use x="816.748047" xlink:href="#DejaVuSans-72"/>
     <use x="857.861328" xlink:href="#DejaVuSans-66"/>
     <use x="893.066406" xlink:href="#DejaVuSans-65"/>
     <use x="954.589844" xlink:href="#DejaVuSans-72"/>
     <use x="993.453125" xlink:href="#DejaVuSans-65"/>
     <use x="1054.976562" xlink:href="#DejaVuSans-6e"/>
     <use x="1118.355469" xlink:href="#DejaVuSans-63"/>
     <use x="1173.335938" xlink:href="#DejaVuSans-65"/>
    </g>
   </g>
  </g>
 </g>
 <defs>
  <clipPath id="pc5a331a90f">
   <rect height="217.44" width="334.8" x="50.14375" y="22.318125"/>
  </clipPath>
 </defs>
</svg>
